<mxfile host="app.diagrams.net" modified="2024-07-03T06:43:18.587Z" agent="Mozilla/5.0 (Windows NT 10.0; Win64; x64) AppleWebKit/537.36 (KHTML, like Gecko) Chrome/123.0.0.0 Safari/537.36 OPR/109.0.0.0" etag="p2jfi7Fj9cbl8Fut_XFS" version="24.6.4" type="github">
  <diagram name="Page-1" id="n0JQ5T5UX9WoHzskl2IX">
    <mxGraphModel dx="3680" dy="3970" grid="1" gridSize="10" guides="1" tooltips="1" connect="1" arrows="1" fold="1" page="1" pageScale="1" pageWidth="850" pageHeight="1100" math="0" shadow="0">
      <root>
        <mxCell id="0" />
        <mxCell id="1" parent="0" />
        <mxCell id="PCnnhm0pdiqX1yWhsQux-125" value="" style="edgeStyle=orthogonalEdgeStyle;rounded=0;orthogonalLoop=1;jettySize=auto;html=1;textShadow=1;" parent="1" source="PCnnhm0pdiqX1yWhsQux-1" target="PCnnhm0pdiqX1yWhsQux-124" edge="1">
          <mxGeometry relative="1" as="geometry" />
        </mxCell>
        <mxCell id="PCnnhm0pdiqX1yWhsQux-1" value="Start" style="strokeWidth=2;html=1;shape=mxgraph.flowchart.start_1;whiteSpace=wrap;textShadow=1;" parent="1" vertex="1">
          <mxGeometry x="-479.99" y="-1795" width="100" height="60" as="geometry" />
        </mxCell>
        <mxCell id="PCnnhm0pdiqX1yWhsQux-5" value="" style="edgeStyle=orthogonalEdgeStyle;rounded=0;orthogonalLoop=1;jettySize=auto;html=1;textShadow=1;" parent="1" source="PCnnhm0pdiqX1yWhsQux-2" target="PCnnhm0pdiqX1yWhsQux-4" edge="1">
          <mxGeometry relative="1" as="geometry" />
        </mxCell>
        <mxCell id="PCnnhm0pdiqX1yWhsQux-2" value="Form Login" style="shape=parallelogram;perimeter=parallelogramPerimeter;whiteSpace=wrap;html=1;fixedSize=1;strokeWidth=2;textShadow=1;" parent="1" vertex="1">
          <mxGeometry x="-312.49" y="-1647" width="125" height="50" as="geometry" />
        </mxCell>
        <mxCell id="PCnnhm0pdiqX1yWhsQux-7" value="" style="edgeStyle=orthogonalEdgeStyle;rounded=0;orthogonalLoop=1;jettySize=auto;html=1;textShadow=1;" parent="1" source="PCnnhm0pdiqX1yWhsQux-4" target="PCnnhm0pdiqX1yWhsQux-6" edge="1">
          <mxGeometry relative="1" as="geometry" />
        </mxCell>
        <mxCell id="PCnnhm0pdiqX1yWhsQux-4" value="Login" style="whiteSpace=wrap;html=1;strokeWidth=2;textShadow=1;" parent="1" vertex="1">
          <mxGeometry x="-78.48999999999998" y="-1647" width="112.5" height="50" as="geometry" />
        </mxCell>
        <mxCell id="PCnnhm0pdiqX1yWhsQux-9" value="" style="edgeStyle=orthogonalEdgeStyle;rounded=0;orthogonalLoop=1;jettySize=auto;html=1;entryX=1;entryY=0.5;entryDx=0;entryDy=0;textShadow=1;" parent="1" source="PCnnhm0pdiqX1yWhsQux-6" edge="1">
          <mxGeometry relative="1" as="geometry">
            <mxPoint x="-242.0399999999999" y="-1645.5" as="targetPoint" />
            <Array as="points">
              <mxPoint x="160" y="-1700" />
              <mxPoint x="-242" y="-1700" />
            </Array>
            <mxPoint x="171.20999999999975" y="-1645" as="sourcePoint" />
          </mxGeometry>
        </mxCell>
        <mxCell id="PCnnhm0pdiqX1yWhsQux-123" value="" style="edgeStyle=orthogonalEdgeStyle;rounded=0;orthogonalLoop=1;jettySize=auto;html=1;textShadow=1;" parent="1" source="PCnnhm0pdiqX1yWhsQux-6" target="PCnnhm0pdiqX1yWhsQux-122" edge="1">
          <mxGeometry relative="1" as="geometry" />
        </mxCell>
        <mxCell id="PCnnhm0pdiqX1yWhsQux-6" value="Berhasil?" style="rhombus;whiteSpace=wrap;html=1;strokeWidth=2;textShadow=1;" parent="1" vertex="1">
          <mxGeometry x="108.51000000000002" y="-1645" width="107.25" height="47" as="geometry" />
        </mxCell>
        <mxCell id="PCnnhm0pdiqX1yWhsQux-10" value="No" style="text;html=1;align=center;verticalAlign=middle;resizable=0;points=[];autosize=1;strokeColor=none;fillColor=none;textShadow=1;" parent="1" vertex="1">
          <mxGeometry x="-44.99000000000001" y="-1730" width="40" height="30" as="geometry" />
        </mxCell>
        <mxCell id="PCnnhm0pdiqX1yWhsQux-14" value="" style="edgeStyle=orthogonalEdgeStyle;rounded=0;orthogonalLoop=1;jettySize=auto;html=1;textShadow=1;" parent="1" target="PCnnhm0pdiqX1yWhsQux-13" edge="1">
          <mxGeometry relative="1" as="geometry">
            <mxPoint x="160.63157894736855" y="-1530" as="sourcePoint" />
          </mxGeometry>
        </mxCell>
        <mxCell id="PCnnhm0pdiqX1yWhsQux-16" value="" style="edgeStyle=orthogonalEdgeStyle;rounded=0;orthogonalLoop=1;jettySize=auto;html=1;textShadow=1;" parent="1" source="PCnnhm0pdiqX1yWhsQux-13" target="PCnnhm0pdiqX1yWhsQux-15" edge="1">
          <mxGeometry relative="1" as="geometry" />
        </mxCell>
        <mxCell id="PCnnhm0pdiqX1yWhsQux-13" value="Admin Melihat pilihan menu" style="whiteSpace=wrap;html=1;strokeWidth=2;textShadow=1;" parent="1" vertex="1">
          <mxGeometry x="109.25000000000001" y="-1490" width="105" height="50" as="geometry" />
        </mxCell>
        <mxCell id="PCnnhm0pdiqX1yWhsQux-18" value="" style="edgeStyle=orthogonalEdgeStyle;rounded=0;orthogonalLoop=1;jettySize=auto;html=1;entryX=1;entryY=0.75;entryDx=0;entryDy=0;textShadow=1;" parent="1" source="PCnnhm0pdiqX1yWhsQux-15" target="PCnnhm0pdiqX1yWhsQux-89" edge="1">
          <mxGeometry relative="1" as="geometry">
            <mxPoint x="480" y="-840" as="targetPoint" />
            <Array as="points">
              <mxPoint x="400" y="-1380" />
              <mxPoint x="400" y="-680" />
            </Array>
          </mxGeometry>
        </mxCell>
        <mxCell id="PCnnhm0pdiqX1yWhsQux-22" value="" style="edgeStyle=orthogonalEdgeStyle;rounded=0;orthogonalLoop=1;jettySize=auto;html=1;textShadow=1;" parent="1" source="PCnnhm0pdiqX1yWhsQux-15" target="PCnnhm0pdiqX1yWhsQux-21" edge="1">
          <mxGeometry relative="1" as="geometry" />
        </mxCell>
        <mxCell id="PCnnhm0pdiqX1yWhsQux-15" value="admin ingin&amp;nbsp;&lt;div&gt;mengelola data?&lt;/div&gt;" style="rhombus;whiteSpace=wrap;html=1;strokeWidth=2;textShadow=1;" parent="1" vertex="1">
          <mxGeometry x="95.75" y="-1410" width="129.75" height="60" as="geometry" />
        </mxCell>
        <mxCell id="PCnnhm0pdiqX1yWhsQux-19" value="Yes" style="text;html=1;align=center;verticalAlign=middle;resizable=0;points=[];autosize=1;strokeColor=none;fillColor=none;textShadow=1;" parent="1" vertex="1">
          <mxGeometry x="163.51" y="-1597" width="40" height="30" as="geometry" />
        </mxCell>
        <mxCell id="PCnnhm0pdiqX1yWhsQux-20" value="No" style="text;html=1;align=center;verticalAlign=middle;resizable=0;points=[];autosize=1;strokeColor=none;fillColor=none;textShadow=1;" parent="1" vertex="1">
          <mxGeometry x="312" y="-1410" width="40" height="30" as="geometry" />
        </mxCell>
        <mxCell id="PCnnhm0pdiqX1yWhsQux-27" value="" style="edgeStyle=orthogonalEdgeStyle;rounded=0;orthogonalLoop=1;jettySize=auto;html=1;textShadow=1;" parent="1" source="PCnnhm0pdiqX1yWhsQux-21" target="PCnnhm0pdiqX1yWhsQux-26" edge="1">
          <mxGeometry relative="1" as="geometry" />
        </mxCell>
        <mxCell id="PCnnhm0pdiqX1yWhsQux-21" value="Tampilan Sub menu Kelola Data" style="whiteSpace=wrap;html=1;strokeWidth=2;textShadow=1;" parent="1" vertex="1">
          <mxGeometry x="-150" y="-1330" width="110.01" height="50" as="geometry" />
        </mxCell>
        <mxCell id="PCnnhm0pdiqX1yWhsQux-29" value="" style="edgeStyle=orthogonalEdgeStyle;rounded=0;orthogonalLoop=1;jettySize=auto;html=1;textShadow=1;" parent="1" source="PCnnhm0pdiqX1yWhsQux-26" edge="1">
          <mxGeometry relative="1" as="geometry">
            <mxPoint x="-485" y="-1170" as="targetPoint" />
          </mxGeometry>
        </mxCell>
        <mxCell id="PCnnhm0pdiqX1yWhsQux-43" value="" style="edgeStyle=orthogonalEdgeStyle;rounded=0;orthogonalLoop=1;jettySize=auto;html=1;textShadow=1;" parent="1" source="PCnnhm0pdiqX1yWhsQux-26" target="PCnnhm0pdiqX1yWhsQux-39" edge="1">
          <mxGeometry relative="1" as="geometry">
            <Array as="points">
              <mxPoint x="-98" y="-1215" />
            </Array>
          </mxGeometry>
        </mxCell>
        <mxCell id="PCnnhm0pdiqX1yWhsQux-26" value="Pilih Tambah&lt;div&gt;&amp;nbsp;Data&lt;/div&gt;" style="rhombus;whiteSpace=wrap;html=1;strokeWidth=2;textShadow=1;" parent="1" vertex="1">
          <mxGeometry x="-340" y="-1250" width="92" height="70" as="geometry" />
        </mxCell>
        <mxCell id="PCnnhm0pdiqX1yWhsQux-31" value="" style="edgeStyle=orthogonalEdgeStyle;rounded=0;orthogonalLoop=1;jettySize=auto;html=1;textShadow=1;" parent="1" target="PCnnhm0pdiqX1yWhsQux-30" edge="1">
          <mxGeometry relative="1" as="geometry">
            <mxPoint x="-485" y="-1130" as="sourcePoint" />
          </mxGeometry>
        </mxCell>
        <mxCell id="PCnnhm0pdiqX1yWhsQux-120" value="" style="edgeStyle=orthogonalEdgeStyle;rounded=0;orthogonalLoop=1;jettySize=auto;html=1;textShadow=1;" parent="1" source="PCnnhm0pdiqX1yWhsQux-30" target="PCnnhm0pdiqX1yWhsQux-119" edge="1">
          <mxGeometry relative="1" as="geometry" />
        </mxCell>
        <mxCell id="PCnnhm0pdiqX1yWhsQux-30" value="Data Tersimpan" style="whiteSpace=wrap;html=1;strokeWidth=2;textShadow=1;" parent="1" vertex="1">
          <mxGeometry x="-560" y="-1090" width="150" height="40" as="geometry" />
        </mxCell>
        <mxCell id="PCnnhm0pdiqX1yWhsQux-88" value="" style="edgeStyle=orthogonalEdgeStyle;rounded=0;orthogonalLoop=1;jettySize=auto;html=1;entryX=0;entryY=0.5;entryDx=0;entryDy=0;textShadow=1;" parent="1" target="PCnnhm0pdiqX1yWhsQux-89" edge="1">
          <mxGeometry relative="1" as="geometry">
            <mxPoint x="-484.9473684210527" y="-970" as="sourcePoint" />
            <mxPoint x="-279" y="-775" as="targetPoint" />
            <Array as="points">
              <mxPoint x="-485" y="-690" />
            </Array>
          </mxGeometry>
        </mxCell>
        <mxCell id="PCnnhm0pdiqX1yWhsQux-36" value="Yes" style="text;html=1;align=center;verticalAlign=middle;resizable=0;points=[];autosize=1;strokeColor=none;fillColor=none;textShadow=1;" parent="1" vertex="1">
          <mxGeometry x="-398" y="-1240" width="40" height="30" as="geometry" />
        </mxCell>
        <mxCell id="PCnnhm0pdiqX1yWhsQux-44" value="" style="edgeStyle=orthogonalEdgeStyle;rounded=0;orthogonalLoop=1;jettySize=auto;html=1;textShadow=1;" parent="1" source="PCnnhm0pdiqX1yWhsQux-39" target="PCnnhm0pdiqX1yWhsQux-45" edge="1">
          <mxGeometry relative="1" as="geometry">
            <mxPoint x="-278" y="-1160" as="targetPoint" />
            <Array as="points">
              <mxPoint x="-258" y="-1160" />
            </Array>
          </mxGeometry>
        </mxCell>
        <mxCell id="PCnnhm0pdiqX1yWhsQux-64" value="" style="edgeStyle=orthogonalEdgeStyle;rounded=0;orthogonalLoop=1;jettySize=auto;html=1;textShadow=1;" parent="1" source="PCnnhm0pdiqX1yWhsQux-39" target="PCnnhm0pdiqX1yWhsQux-63" edge="1">
          <mxGeometry relative="1" as="geometry" />
        </mxCell>
        <mxCell id="PCnnhm0pdiqX1yWhsQux-39" value="Pilih Edit&amp;nbsp;&lt;div&gt;Data&lt;/div&gt;" style="rhombus;whiteSpace=wrap;html=1;strokeWidth=2;textShadow=1;" parent="1" vertex="1">
          <mxGeometry x="-144.99" y="-1190" width="100" height="60" as="geometry" />
        </mxCell>
        <mxCell id="PCnnhm0pdiqX1yWhsQux-131" value="" style="edgeStyle=orthogonalEdgeStyle;rounded=0;orthogonalLoop=1;jettySize=auto;html=1;textShadow=1;" parent="1" source="PCnnhm0pdiqX1yWhsQux-45" target="PCnnhm0pdiqX1yWhsQux-129" edge="1">
          <mxGeometry relative="1" as="geometry" />
        </mxCell>
        <mxCell id="PCnnhm0pdiqX1yWhsQux-45" value="Admin Memilih Data yang ingin di Ubah" style="whiteSpace=wrap;html=1;strokeWidth=2;textShadow=1;" parent="1" vertex="1">
          <mxGeometry x="-334" y="-1140" width="150" height="40" as="geometry" />
        </mxCell>
        <mxCell id="PCnnhm0pdiqX1yWhsQux-111" value="" style="edgeStyle=orthogonalEdgeStyle;rounded=0;orthogonalLoop=1;jettySize=auto;html=1;textShadow=1;" parent="1" source="PCnnhm0pdiqX1yWhsQux-50" target="PCnnhm0pdiqX1yWhsQux-110" edge="1">
          <mxGeometry relative="1" as="geometry" />
        </mxCell>
        <mxCell id="PCnnhm0pdiqX1yWhsQux-50" value="Simpan Perubahan" style="whiteSpace=wrap;html=1;strokeWidth=2;textShadow=1;" parent="1" vertex="1">
          <mxGeometry x="-339" y="-929" width="150" height="40" as="geometry" />
        </mxCell>
        <mxCell id="PCnnhm0pdiqX1yWhsQux-55" value="Admin Memperbarui&lt;div&gt;Data&lt;/div&gt;" style="shape=parallelogram;perimeter=parallelogramPerimeter;whiteSpace=wrap;html=1;fixedSize=1;strokeWidth=2;textShadow=1;" parent="1" vertex="1">
          <mxGeometry x="-340" y="-1000" width="160" height="40" as="geometry" />
        </mxCell>
        <mxCell id="PCnnhm0pdiqX1yWhsQux-59" value="" style="edgeStyle=orthogonalEdgeStyle;rounded=0;orthogonalLoop=1;jettySize=auto;html=1;textShadow=1;" parent="1" edge="1">
          <mxGeometry relative="1" as="geometry">
            <mxPoint x="-265.34" y="-960" as="sourcePoint" />
            <mxPoint x="-265.34" y="-930" as="targetPoint" />
          </mxGeometry>
        </mxCell>
        <mxCell id="PCnnhm0pdiqX1yWhsQux-60" value="Admin Memasukan Data Baru" style="shape=parallelogram;perimeter=parallelogramPerimeter;whiteSpace=wrap;html=1;fixedSize=1;strokeWidth=2;textShadow=1;" parent="1" vertex="1">
          <mxGeometry x="-565" y="-1170" width="160" height="40" as="geometry" />
        </mxCell>
        <mxCell id="PCnnhm0pdiqX1yWhsQux-61" value="Yes" style="text;html=1;align=center;verticalAlign=middle;resizable=0;points=[];autosize=1;strokeColor=none;fillColor=none;textShadow=1;" parent="1" vertex="1">
          <mxGeometry x="-209" y="-1183" width="40" height="30" as="geometry" />
        </mxCell>
        <mxCell id="PCnnhm0pdiqX1yWhsQux-62" value="No" style="text;html=1;align=center;verticalAlign=middle;resizable=0;points=[];autosize=1;strokeColor=none;fillColor=none;textShadow=1;" parent="1" vertex="1">
          <mxGeometry x="-209" y="-1240" width="40" height="30" as="geometry" />
        </mxCell>
        <mxCell id="PCnnhm0pdiqX1yWhsQux-67" value="" style="edgeStyle=orthogonalEdgeStyle;rounded=0;orthogonalLoop=1;jettySize=auto;html=1;exitX=0;exitY=0.5;exitDx=0;exitDy=0;textShadow=1;" parent="1" source="PCnnhm0pdiqX1yWhsQux-63" edge="1">
          <mxGeometry relative="1" as="geometry">
            <mxPoint x="10" y="-1080" as="targetPoint" />
            <Array as="points">
              <mxPoint x="40" y="-1090" />
              <mxPoint x="40" y="-1080" />
            </Array>
          </mxGeometry>
        </mxCell>
        <mxCell id="PCnnhm0pdiqX1yWhsQux-78" value="" style="edgeStyle=orthogonalEdgeStyle;rounded=0;orthogonalLoop=1;jettySize=auto;html=1;textShadow=1;" parent="1" source="PCnnhm0pdiqX1yWhsQux-63" target="PCnnhm0pdiqX1yWhsQux-77" edge="1">
          <mxGeometry relative="1" as="geometry">
            <Array as="points">
              <mxPoint x="260" y="-1090" />
            </Array>
          </mxGeometry>
        </mxCell>
        <mxCell id="PCnnhm0pdiqX1yWhsQux-63" value="Pilih Hapus&amp;nbsp;&lt;div&gt;Data&lt;/div&gt;" style="rhombus;whiteSpace=wrap;html=1;strokeWidth=2;textShadow=1;" parent="1" vertex="1">
          <mxGeometry x="59.999999999999986" y="-1120" width="100" height="60" as="geometry" />
        </mxCell>
        <mxCell id="PCnnhm0pdiqX1yWhsQux-65" value="No" style="text;html=1;align=center;verticalAlign=middle;resizable=0;points=[];autosize=1;strokeColor=none;fillColor=none;textShadow=1;" parent="1" vertex="1">
          <mxGeometry x="10" y="-1183" width="40" height="30" as="geometry" />
        </mxCell>
        <mxCell id="PCnnhm0pdiqX1yWhsQux-70" value="" style="edgeStyle=orthogonalEdgeStyle;rounded=0;orthogonalLoop=1;jettySize=auto;html=1;textShadow=1;" parent="1" source="PCnnhm0pdiqX1yWhsQux-66" edge="1">
          <mxGeometry relative="1" as="geometry">
            <mxPoint x="-55.00000000000023" y="-1030" as="targetPoint" />
          </mxGeometry>
        </mxCell>
        <mxCell id="PCnnhm0pdiqX1yWhsQux-66" value="Admin Memilih Data yang ingin di Hapus" style="whiteSpace=wrap;html=1;strokeWidth=2;textShadow=1;" parent="1" vertex="1">
          <mxGeometry x="-120" y="-1100" width="130" height="40" as="geometry" />
        </mxCell>
        <mxCell id="PCnnhm0pdiqX1yWhsQux-68" value="Yes" style="text;html=1;align=center;verticalAlign=middle;resizable=0;points=[];autosize=1;strokeColor=none;fillColor=none;textShadow=1;" parent="1" vertex="1">
          <mxGeometry x="18" y="-1112" width="40" height="30" as="geometry" />
        </mxCell>
        <mxCell id="PCnnhm0pdiqX1yWhsQux-72" value="" style="edgeStyle=orthogonalEdgeStyle;rounded=0;orthogonalLoop=1;jettySize=auto;html=1;textShadow=1;" parent="1" target="PCnnhm0pdiqX1yWhsQux-71" edge="1">
          <mxGeometry relative="1" as="geometry">
            <mxPoint x="-55.00000000000023" y="-990" as="sourcePoint" />
          </mxGeometry>
        </mxCell>
        <mxCell id="PCnnhm0pdiqX1yWhsQux-114" value="" style="edgeStyle=orthogonalEdgeStyle;rounded=0;orthogonalLoop=1;jettySize=auto;html=1;textShadow=1;" parent="1" source="PCnnhm0pdiqX1yWhsQux-71" target="PCnnhm0pdiqX1yWhsQux-113" edge="1">
          <mxGeometry relative="1" as="geometry" />
        </mxCell>
        <mxCell id="PCnnhm0pdiqX1yWhsQux-71" value="Hapus Data" style="whiteSpace=wrap;html=1;strokeWidth=2;textShadow=1;" parent="1" vertex="1">
          <mxGeometry x="-120" y="-959" width="130" height="40" as="geometry" />
        </mxCell>
        <mxCell id="PCnnhm0pdiqX1yWhsQux-100" value="" style="edgeStyle=orthogonalEdgeStyle;rounded=0;orthogonalLoop=1;jettySize=auto;html=1;entryX=0;entryY=0.5;entryDx=0;entryDy=0;textShadow=1;" parent="1" target="PCnnhm0pdiqX1yWhsQux-89" edge="1">
          <mxGeometry relative="1" as="geometry">
            <mxPoint x="-54.947368421052715" y="-849" as="sourcePoint" />
            <mxPoint x="-248" y="-775" as="targetPoint" />
            <Array as="points">
              <mxPoint x="-55" y="-690" />
            </Array>
          </mxGeometry>
        </mxCell>
        <mxCell id="PCnnhm0pdiqX1yWhsQux-91" value="" style="edgeStyle=orthogonalEdgeStyle;rounded=0;orthogonalLoop=1;jettySize=auto;html=1;entryX=1;entryY=0.75;entryDx=0;entryDy=0;textShadow=1;" parent="1" source="PCnnhm0pdiqX1yWhsQux-77" target="PCnnhm0pdiqX1yWhsQux-89" edge="1">
          <mxGeometry relative="1" as="geometry">
            <mxPoint x="252" y="-970" as="targetPoint" />
            <Array as="points">
              <mxPoint x="252" y="-680" />
            </Array>
          </mxGeometry>
        </mxCell>
        <mxCell id="PCnnhm0pdiqX1yWhsQux-77" value="Halaman Dashboard" style="whiteSpace=wrap;html=1;strokeWidth=2;textShadow=1;" parent="1" vertex="1">
          <mxGeometry x="192" y="-1080" width="120" height="40" as="geometry" />
        </mxCell>
        <mxCell id="PCnnhm0pdiqX1yWhsQux-79" value="No" style="text;html=1;align=center;verticalAlign=middle;resizable=0;points=[];autosize=1;strokeColor=none;fillColor=none;textShadow=1;" parent="1" vertex="1">
          <mxGeometry x="178.5" y="-1112" width="40" height="30" as="geometry" />
        </mxCell>
        <mxCell id="PCnnhm0pdiqX1yWhsQux-107" value="" style="edgeStyle=orthogonalEdgeStyle;rounded=0;orthogonalLoop=1;jettySize=auto;html=1;textShadow=1;" parent="1" source="PCnnhm0pdiqX1yWhsQux-89" target="PCnnhm0pdiqX1yWhsQux-106" edge="1">
          <mxGeometry relative="1" as="geometry" />
        </mxCell>
        <mxCell id="PCnnhm0pdiqX1yWhsQux-89" value="Admin Logout" style="whiteSpace=wrap;html=1;strokeWidth=2;textShadow=1;" parent="1" vertex="1">
          <mxGeometry x="58" y="-710" width="120" height="40" as="geometry" />
        </mxCell>
        <mxCell id="PCnnhm0pdiqX1yWhsQux-92" value="Yes" style="text;html=1;align=center;verticalAlign=middle;resizable=0;points=[];autosize=1;strokeColor=none;fillColor=none;textShadow=1;" parent="1" vertex="1">
          <mxGeometry x="-30" y="-1410" width="40" height="30" as="geometry" />
        </mxCell>
        <mxCell id="PCnnhm0pdiqX1yWhsQux-109" value="" style="edgeStyle=orthogonalEdgeStyle;rounded=0;orthogonalLoop=1;jettySize=auto;html=1;textShadow=1;" parent="1" source="PCnnhm0pdiqX1yWhsQux-106" target="PCnnhm0pdiqX1yWhsQux-108" edge="1">
          <mxGeometry relative="1" as="geometry" />
        </mxCell>
        <mxCell id="PCnnhm0pdiqX1yWhsQux-106" value="Anda Telah&amp;nbsp;&lt;div&gt;Logout&lt;/div&gt;" style="shape=parallelogram;perimeter=parallelogramPerimeter;whiteSpace=wrap;html=1;fixedSize=1;strokeWidth=2;textShadow=1;" parent="1" vertex="1">
          <mxGeometry x="58" y="-640" width="120" height="40" as="geometry" />
        </mxCell>
        <mxCell id="PCnnhm0pdiqX1yWhsQux-108" value="End" style="strokeWidth=2;html=1;shape=mxgraph.flowchart.start_1;whiteSpace=wrap;textShadow=1;" parent="1" vertex="1">
          <mxGeometry x="68" y="-570" width="100" height="50" as="geometry" />
        </mxCell>
        <mxCell id="PCnnhm0pdiqX1yWhsQux-135" value="" style="edgeStyle=orthogonalEdgeStyle;rounded=0;orthogonalLoop=1;jettySize=auto;html=1;entryX=0;entryY=0.5;entryDx=0;entryDy=0;textShadow=1;" parent="1" source="PCnnhm0pdiqX1yWhsQux-110" target="PCnnhm0pdiqX1yWhsQux-89" edge="1">
          <mxGeometry relative="1" as="geometry">
            <mxPoint x="-264" y="-740" as="targetPoint" />
            <Array as="points">
              <mxPoint x="-264" y="-690" />
            </Array>
          </mxGeometry>
        </mxCell>
        <mxCell id="PCnnhm0pdiqX1yWhsQux-110" value="&lt;font style=&quot;font-size: 10px;&quot;&gt;Tampilan Konfirmasi data berhasil di ubah&lt;/font&gt;" style="shape=parallelogram;perimeter=parallelogramPerimeter;whiteSpace=wrap;html=1;fixedSize=1;strokeWidth=2;textShadow=1;" parent="1" vertex="1">
          <mxGeometry x="-339" y="-865" width="150" height="45" as="geometry" />
        </mxCell>
        <mxCell id="PCnnhm0pdiqX1yWhsQux-113" value="&lt;font style=&quot;font-size: 10px;&quot;&gt;Tampilan Konfirmasi data berhasil di hapus&lt;/font&gt;" style="shape=parallelogram;perimeter=parallelogramPerimeter;whiteSpace=wrap;html=1;fixedSize=1;strokeWidth=2;textShadow=1;" parent="1" vertex="1">
          <mxGeometry x="-127" y="-870" width="145" height="40" as="geometry" />
        </mxCell>
        <mxCell id="PCnnhm0pdiqX1yWhsQux-119" value="Tampilan Konfirmasi data berhasil di simpan" style="shape=parallelogram;perimeter=parallelogramPerimeter;whiteSpace=wrap;html=1;fixedSize=1;strokeWidth=2;textShadow=1;" parent="1" vertex="1">
          <mxGeometry x="-570" y="-990" width="170" height="41" as="geometry" />
        </mxCell>
        <mxCell id="PCnnhm0pdiqX1yWhsQux-122" value="Tampilan&amp;nbsp;&lt;div&gt;Dashboard&lt;/div&gt;" style="shape=parallelogram;perimeter=parallelogramPerimeter;whiteSpace=wrap;html=1;fixedSize=1;strokeWidth=2;textShadow=1;" parent="1" vertex="1">
          <mxGeometry x="99.01" y="-1566" width="127" height="51" as="geometry" />
        </mxCell>
        <mxCell id="PCnnhm0pdiqX1yWhsQux-126" value="" style="edgeStyle=orthogonalEdgeStyle;rounded=0;orthogonalLoop=1;jettySize=auto;html=1;textShadow=1;" parent="1" source="PCnnhm0pdiqX1yWhsQux-124" target="PCnnhm0pdiqX1yWhsQux-2" edge="1">
          <mxGeometry relative="1" as="geometry" />
        </mxCell>
        <mxCell id="PCnnhm0pdiqX1yWhsQux-124" value="Halaman Login" style="strokeWidth=2;html=1;shape=mxgraph.flowchart.display;whiteSpace=wrap;textShadow=1;" parent="1" vertex="1">
          <mxGeometry x="-488.49" y="-1652" width="117" height="60" as="geometry" />
        </mxCell>
        <mxCell id="PCnnhm0pdiqX1yWhsQux-132" value="" style="edgeStyle=orthogonalEdgeStyle;rounded=0;orthogonalLoop=1;jettySize=auto;html=1;textShadow=1;" parent="1" source="PCnnhm0pdiqX1yWhsQux-129" target="PCnnhm0pdiqX1yWhsQux-55" edge="1">
          <mxGeometry relative="1" as="geometry" />
        </mxCell>
        <mxCell id="PCnnhm0pdiqX1yWhsQux-129" value="Tampilan Detail Data" style="shape=parallelogram;perimeter=parallelogramPerimeter;whiteSpace=wrap;html=1;fixedSize=1;strokeWidth=2;textShadow=1;" parent="1" vertex="1">
          <mxGeometry x="-340" y="-1076" width="160" height="40" as="geometry" />
        </mxCell>
        <mxCell id="PCnnhm0pdiqX1yWhsQux-138" value="Konfirmasi&lt;div&gt;&amp;nbsp;penghapusan data&lt;/div&gt;" style="shape=parallelogram;perimeter=parallelogramPerimeter;whiteSpace=wrap;html=1;fixedSize=1;strokeWidth=2;textShadow=1;" parent="1" vertex="1">
          <mxGeometry x="-130" y="-1030" width="155.5" height="40" as="geometry" />
        </mxCell>
      </root>
    </mxGraphModel>
  </diagram>
</mxfile>
